<mxfile host="Electron" modified="2023-07-14T15:04:40.648Z" agent="Mozilla/5.0 (X11; Linux x86_64) AppleWebKit/537.36 (KHTML, like Gecko) draw.io/21.6.1 Chrome/112.0.5615.204 Electron/24.6.1 Safari/537.36" etag="UDijO_SAbQxGdyx-wwKz" version="21.6.1" type="device">
  <diagram name="Page-1" id="rQf9hl0vmo8r0vDQVXVF">
    <mxGraphModel dx="1678" dy="987" grid="1" gridSize="10" guides="1" tooltips="1" connect="1" arrows="1" fold="1" page="1" pageScale="1" pageWidth="850" pageHeight="1100" math="0" shadow="0">
      <root>
        <mxCell id="0" />
        <mxCell id="1" parent="0" />
        <mxCell id="wm7YnSlOgA21VQ6OUT5E-71" value="" style="rounded=0;whiteSpace=wrap;html=1;movable=1;resizable=1;rotatable=1;deletable=1;editable=1;locked=0;connectable=1;strokeColor=none;" parent="1" vertex="1">
          <mxGeometry x="120" y="200" width="920" height="440" as="geometry" />
        </mxCell>
        <mxCell id="wm7YnSlOgA21VQ6OUT5E-1" value="" style="verticalLabelPosition=bottom;verticalAlign=top;html=1;shape=hexagon;perimeter=hexagonPerimeter2;arcSize=6;size=0.27;fillColor=none;strokeWidth=2;" parent="1" vertex="1">
          <mxGeometry x="280" y="400" width="80" height="40" as="geometry" />
        </mxCell>
        <mxCell id="wm7YnSlOgA21VQ6OUT5E-2" value="" style="shape=partialRectangle;whiteSpace=wrap;html=1;bottom=1;right=1;left=1;top=0;fillColor=none;routingCenterX=-0.5;direction=west;strokeWidth=2;" parent="1" vertex="1">
          <mxGeometry x="320" y="301.15" width="40" height="40" as="geometry" />
        </mxCell>
        <mxCell id="wm7YnSlOgA21VQ6OUT5E-8" value="" style="shape=partialRectangle;whiteSpace=wrap;html=1;bottom=1;right=1;left=1;top=0;fillColor=none;routingCenterX=-0.5;direction=west;strokeWidth=2;" parent="1" vertex="1">
          <mxGeometry x="400" y="301.15" width="40" height="40" as="geometry" />
        </mxCell>
        <mxCell id="wm7YnSlOgA21VQ6OUT5E-10" value="" style="shape=partialRectangle;whiteSpace=wrap;html=1;bottom=1;right=1;left=1;top=0;fillColor=none;routingCenterX=-0.5;direction=west;strokeWidth=2;" parent="1" vertex="1">
          <mxGeometry x="480" y="301.15" width="40" height="40" as="geometry" />
        </mxCell>
        <mxCell id="wm7YnSlOgA21VQ6OUT5E-11" value="" style="shape=partialRectangle;whiteSpace=wrap;html=1;bottom=1;right=1;left=1;top=0;fillColor=none;routingCenterX=-0.5;direction=west;strokeWidth=2;" parent="1" vertex="1">
          <mxGeometry x="560" y="301.15" width="40" height="40" as="geometry" />
        </mxCell>
        <mxCell id="wm7YnSlOgA21VQ6OUT5E-14" value="" style="endArrow=none;html=1;rounded=0;strokeWidth=2;exitX=0;exitY=0;exitDx=0;exitDy=0;entryX=1;entryY=0;entryDx=0;entryDy=0;" parent="1" source="wm7YnSlOgA21VQ6OUT5E-2" target="wm7YnSlOgA21VQ6OUT5E-8" edge="1">
          <mxGeometry width="50" height="50" relative="1" as="geometry">
            <mxPoint x="520" y="441.15" as="sourcePoint" />
            <mxPoint x="570" y="391.15" as="targetPoint" />
          </mxGeometry>
        </mxCell>
        <mxCell id="wm7YnSlOgA21VQ6OUT5E-16" value="" style="endArrow=none;html=1;rounded=0;strokeWidth=2;exitX=0;exitY=0;exitDx=0;exitDy=0;" parent="1" source="wm7YnSlOgA21VQ6OUT5E-8" edge="1">
          <mxGeometry width="50" height="50" relative="1" as="geometry">
            <mxPoint x="560" y="341.15" as="sourcePoint" />
            <mxPoint x="480" y="341.15" as="targetPoint" />
          </mxGeometry>
        </mxCell>
        <mxCell id="wm7YnSlOgA21VQ6OUT5E-17" value="" style="endArrow=none;html=1;rounded=0;strokeWidth=2;exitX=0;exitY=0;exitDx=0;exitDy=0;" parent="1" edge="1">
          <mxGeometry width="50" height="50" relative="1" as="geometry">
            <mxPoint x="520" y="341.15" as="sourcePoint" />
            <mxPoint x="560" y="341.15" as="targetPoint" />
          </mxGeometry>
        </mxCell>
        <mxCell id="wm7YnSlOgA21VQ6OUT5E-18" value="" style="endArrow=none;html=1;rounded=0;strokeWidth=2;entryX=1;entryY=0;entryDx=0;entryDy=0;" parent="1" edge="1">
          <mxGeometry width="50" height="50" relative="1" as="geometry">
            <mxPoint x="200" y="341.15" as="sourcePoint" />
            <mxPoint x="320" y="341.15" as="targetPoint" />
          </mxGeometry>
        </mxCell>
        <mxCell id="wm7YnSlOgA21VQ6OUT5E-19" value="" style="verticalLabelPosition=bottom;verticalAlign=top;html=1;shape=hexagon;perimeter=hexagonPerimeter2;arcSize=6;size=0.27;fillColor=none;strokeWidth=2;" parent="1" vertex="1">
          <mxGeometry x="360" y="400" width="80" height="40" as="geometry" />
        </mxCell>
        <mxCell id="wm7YnSlOgA21VQ6OUT5E-21" value="" style="verticalLabelPosition=bottom;verticalAlign=top;html=1;shape=hexagon;perimeter=hexagonPerimeter2;arcSize=6;size=0.27;fillColor=none;strokeWidth=2;" parent="1" vertex="1">
          <mxGeometry x="440" y="400" width="80" height="40" as="geometry" />
        </mxCell>
        <mxCell id="wm7YnSlOgA21VQ6OUT5E-22" value="" style="verticalLabelPosition=bottom;verticalAlign=top;html=1;shape=hexagon;perimeter=hexagonPerimeter2;arcSize=6;size=0.27;fillColor=none;strokeWidth=2;" parent="1" vertex="1">
          <mxGeometry x="520" y="400" width="80" height="40" as="geometry" />
        </mxCell>
        <mxCell id="wm7YnSlOgA21VQ6OUT5E-25" value="" style="verticalLabelPosition=bottom;verticalAlign=top;html=1;shape=hexagon;perimeter=hexagonPerimeter2;arcSize=6;size=0.27;fillColor=none;strokeWidth=2;" parent="1" vertex="1">
          <mxGeometry x="600" y="400" width="80" height="40" as="geometry" />
        </mxCell>
        <mxCell id="wm7YnSlOgA21VQ6OUT5E-26" value="" style="verticalLabelPosition=bottom;verticalAlign=top;html=1;shape=hexagon;perimeter=hexagonPerimeter2;arcSize=6;size=0.27;fillColor=none;strokeWidth=2;" parent="1" vertex="1">
          <mxGeometry x="680" y="400" width="80" height="40" as="geometry" />
        </mxCell>
        <mxCell id="wm7YnSlOgA21VQ6OUT5E-28" value="" style="shape=partialRectangle;whiteSpace=wrap;html=1;bottom=1;right=1;left=1;top=0;fillColor=none;routingCenterX=-0.5;direction=west;strokeWidth=2;" parent="1" vertex="1">
          <mxGeometry x="640" y="300.77" width="40" height="40" as="geometry" />
        </mxCell>
        <mxCell id="wm7YnSlOgA21VQ6OUT5E-29" value="" style="endArrow=none;html=1;rounded=0;strokeWidth=2;exitX=0;exitY=0;exitDx=0;exitDy=0;" parent="1" edge="1">
          <mxGeometry width="50" height="50" relative="1" as="geometry">
            <mxPoint x="600" y="340.77" as="sourcePoint" />
            <mxPoint x="640" y="340.77" as="targetPoint" />
          </mxGeometry>
        </mxCell>
        <mxCell id="wm7YnSlOgA21VQ6OUT5E-30" value="" style="shape=partialRectangle;whiteSpace=wrap;html=1;bottom=1;right=1;left=1;top=0;fillColor=none;routingCenterX=-0.5;direction=west;strokeWidth=2;" parent="1" vertex="1">
          <mxGeometry x="720" y="300" width="40" height="40" as="geometry" />
        </mxCell>
        <mxCell id="wm7YnSlOgA21VQ6OUT5E-31" value="" style="endArrow=none;html=1;rounded=0;strokeWidth=2;exitX=0;exitY=0;exitDx=0;exitDy=0;" parent="1" edge="1">
          <mxGeometry width="50" height="50" relative="1" as="geometry">
            <mxPoint x="680" y="340" as="sourcePoint" />
            <mxPoint x="720" y="340" as="targetPoint" />
          </mxGeometry>
        </mxCell>
        <mxCell id="wm7YnSlOgA21VQ6OUT5E-32" value="" style="shape=partialRectangle;whiteSpace=wrap;html=1;bottom=1;right=1;left=1;top=0;fillColor=none;routingCenterX=-0.5;direction=west;strokeWidth=2;" parent="1" vertex="1">
          <mxGeometry x="800" y="301.15" width="40" height="40" as="geometry" />
        </mxCell>
        <mxCell id="wm7YnSlOgA21VQ6OUT5E-33" value="" style="endArrow=none;html=1;rounded=0;strokeWidth=2;exitX=0;exitY=0;exitDx=0;exitDy=0;" parent="1" edge="1">
          <mxGeometry width="50" height="50" relative="1" as="geometry">
            <mxPoint x="760" y="341.15" as="sourcePoint" />
            <mxPoint x="800" y="341.15" as="targetPoint" />
          </mxGeometry>
        </mxCell>
        <mxCell id="wm7YnSlOgA21VQ6OUT5E-34" value="" style="shape=partialRectangle;whiteSpace=wrap;html=1;bottom=1;right=1;left=1;top=0;fillColor=none;routingCenterX=-0.5;direction=west;strokeWidth=2;" parent="1" vertex="1">
          <mxGeometry x="880" y="301.15" width="40" height="40" as="geometry" />
        </mxCell>
        <mxCell id="wm7YnSlOgA21VQ6OUT5E-35" value="" style="endArrow=none;html=1;rounded=0;strokeWidth=2;exitX=0;exitY=0;exitDx=0;exitDy=0;" parent="1" edge="1">
          <mxGeometry width="50" height="50" relative="1" as="geometry">
            <mxPoint x="840" y="341.15" as="sourcePoint" />
            <mxPoint x="880" y="341.15" as="targetPoint" />
          </mxGeometry>
        </mxCell>
        <mxCell id="wm7YnSlOgA21VQ6OUT5E-36" value="" style="endArrow=none;html=1;rounded=0;strokeWidth=2;exitX=0;exitY=0;exitDx=0;exitDy=0;" parent="1" edge="1">
          <mxGeometry width="50" height="50" relative="1" as="geometry">
            <mxPoint x="920" y="419.55" as="sourcePoint" />
            <mxPoint x="940" y="400" as="targetPoint" />
          </mxGeometry>
        </mxCell>
        <mxCell id="wm7YnSlOgA21VQ6OUT5E-37" value="" style="verticalLabelPosition=bottom;verticalAlign=top;html=1;shape=hexagon;perimeter=hexagonPerimeter2;arcSize=6;size=0.27;fillColor=none;strokeWidth=2;" parent="1" vertex="1">
          <mxGeometry x="760" y="400" width="80" height="40" as="geometry" />
        </mxCell>
        <mxCell id="wm7YnSlOgA21VQ6OUT5E-38" value="" style="verticalLabelPosition=bottom;verticalAlign=top;html=1;shape=hexagon;perimeter=hexagonPerimeter2;arcSize=6;size=0.27;fillColor=none;strokeWidth=2;" parent="1" vertex="1">
          <mxGeometry x="840" y="400" width="80" height="40" as="geometry" />
        </mxCell>
        <mxCell id="wm7YnSlOgA21VQ6OUT5E-41" value="" style="endArrow=none;html=1;rounded=0;strokeWidth=2;entryX=1;entryY=0;entryDx=0;entryDy=0;" parent="1" edge="1">
          <mxGeometry width="50" height="50" relative="1" as="geometry">
            <mxPoint x="260" y="400" as="sourcePoint" />
            <mxPoint x="280" y="419.55" as="targetPoint" />
          </mxGeometry>
        </mxCell>
        <mxCell id="wm7YnSlOgA21VQ6OUT5E-43" value="" style="endArrow=none;html=1;rounded=0;strokeWidth=2;" parent="1" edge="1">
          <mxGeometry width="50" height="50" relative="1" as="geometry">
            <mxPoint x="200" y="580" as="sourcePoint" />
            <mxPoint x="280" y="580" as="targetPoint" />
          </mxGeometry>
        </mxCell>
        <mxCell id="wm7YnSlOgA21VQ6OUT5E-44" value="" style="endArrow=none;html=1;rounded=0;strokeWidth=2;" parent="1" edge="1">
          <mxGeometry width="50" height="50" relative="1" as="geometry">
            <mxPoint x="280" y="580" as="sourcePoint" />
            <mxPoint x="280" y="620" as="targetPoint" />
          </mxGeometry>
        </mxCell>
        <mxCell id="wm7YnSlOgA21VQ6OUT5E-45" value="" style="endArrow=none;html=1;rounded=0;strokeWidth=2;" parent="1" edge="1">
          <mxGeometry width="50" height="50" relative="1" as="geometry">
            <mxPoint x="280" y="620" as="sourcePoint" />
            <mxPoint x="960" y="620" as="targetPoint" />
          </mxGeometry>
        </mxCell>
        <mxCell id="wm7YnSlOgA21VQ6OUT5E-46" value="" style="endArrow=none;html=1;rounded=0;strokeWidth=2;" parent="1" edge="1">
          <mxGeometry width="50" height="50" relative="1" as="geometry">
            <mxPoint x="960" y="580" as="sourcePoint" />
            <mxPoint x="960" y="620" as="targetPoint" />
          </mxGeometry>
        </mxCell>
        <mxCell id="wm7YnSlOgA21VQ6OUT5E-47" value="" style="endArrow=none;html=1;rounded=0;strokeWidth=2;" parent="1" edge="1">
          <mxGeometry width="50" height="50" relative="1" as="geometry">
            <mxPoint x="960" y="579.57" as="sourcePoint" />
            <mxPoint x="1000" y="580" as="targetPoint" />
          </mxGeometry>
        </mxCell>
        <mxCell id="wm7YnSlOgA21VQ6OUT5E-48" value="" style="verticalLabelPosition=bottom;verticalAlign=top;html=1;shape=hexagon;perimeter=hexagonPerimeter2;arcSize=6;size=0.27;fillColor=none;strokeWidth=2;" parent="1" vertex="1">
          <mxGeometry x="280" y="480" width="80" height="40" as="geometry" />
        </mxCell>
        <mxCell id="wm7YnSlOgA21VQ6OUT5E-49" value="" style="verticalLabelPosition=bottom;verticalAlign=top;html=1;shape=hexagon;perimeter=hexagonPerimeter2;arcSize=6;size=0.27;fillColor=none;strokeWidth=2;" parent="1" vertex="1">
          <mxGeometry x="360" y="480" width="80" height="40" as="geometry" />
        </mxCell>
        <mxCell id="wm7YnSlOgA21VQ6OUT5E-50" value="" style="verticalLabelPosition=bottom;verticalAlign=top;html=1;shape=hexagon;perimeter=hexagonPerimeter2;arcSize=6;size=0.27;fillColor=none;strokeWidth=2;" parent="1" vertex="1">
          <mxGeometry x="440" y="480" width="80" height="40" as="geometry" />
        </mxCell>
        <mxCell id="wm7YnSlOgA21VQ6OUT5E-51" value="" style="verticalLabelPosition=bottom;verticalAlign=top;html=1;shape=hexagon;perimeter=hexagonPerimeter2;arcSize=6;size=0.27;fillColor=none;strokeWidth=2;" parent="1" vertex="1">
          <mxGeometry x="520" y="480" width="80" height="40" as="geometry" />
        </mxCell>
        <mxCell id="wm7YnSlOgA21VQ6OUT5E-52" value="" style="verticalLabelPosition=bottom;verticalAlign=top;html=1;shape=hexagon;perimeter=hexagonPerimeter2;arcSize=6;size=0.27;fillColor=none;strokeWidth=2;" parent="1" vertex="1">
          <mxGeometry x="600" y="480" width="80" height="40" as="geometry" />
        </mxCell>
        <mxCell id="wm7YnSlOgA21VQ6OUT5E-53" value="" style="verticalLabelPosition=bottom;verticalAlign=top;html=1;shape=hexagon;perimeter=hexagonPerimeter2;arcSize=6;size=0.27;fillColor=none;strokeWidth=2;" parent="1" vertex="1">
          <mxGeometry x="680" y="480" width="80" height="40" as="geometry" />
        </mxCell>
        <mxCell id="wm7YnSlOgA21VQ6OUT5E-54" value="" style="verticalLabelPosition=bottom;verticalAlign=top;html=1;shape=hexagon;perimeter=hexagonPerimeter2;arcSize=6;size=0.27;fillColor=none;strokeWidth=2;" parent="1" vertex="1">
          <mxGeometry x="760" y="480" width="80" height="40" as="geometry" />
        </mxCell>
        <mxCell id="wm7YnSlOgA21VQ6OUT5E-55" value="" style="verticalLabelPosition=bottom;verticalAlign=top;html=1;shape=hexagon;perimeter=hexagonPerimeter2;arcSize=6;size=0.27;fillColor=none;strokeWidth=2;" parent="1" vertex="1">
          <mxGeometry x="840" y="480" width="80" height="40" as="geometry" />
        </mxCell>
        <mxCell id="wm7YnSlOgA21VQ6OUT5E-39" value="" style="endArrow=none;dashed=1;html=1;strokeWidth=2;rounded=0;strokeColor=#b85450;fillColor=#f8cecc;" parent="1" edge="1">
          <mxGeometry width="50" height="50" relative="1" as="geometry">
            <mxPoint x="280" y="580" as="sourcePoint" />
            <mxPoint x="280" y="580" as="targetPoint" />
          </mxGeometry>
        </mxCell>
        <mxCell id="wm7YnSlOgA21VQ6OUT5E-57" value="&lt;font style=&quot;font-size: 15px;&quot;&gt;通讯开始&lt;/font&gt;" style="text;html=1;align=center;verticalAlign=middle;resizable=0;points=[];autosize=1;" parent="1" vertex="1">
          <mxGeometry x="240" y="230" width="80" height="30" as="geometry" />
        </mxCell>
        <mxCell id="wm7YnSlOgA21VQ6OUT5E-64" value="" style="endArrow=none;dashed=1;html=1;strokeWidth=2;rounded=0;strokeColor=#b85450;fillColor=#f8cecc;exitX=0.513;exitY=1.033;exitDx=0;exitDy=0;exitPerimeter=0;" parent="1" edge="1" source="wm7YnSlOgA21VQ6OUT5E-57">
          <mxGeometry width="50" height="50" relative="1" as="geometry">
            <mxPoint x="280" y="280" as="sourcePoint" />
            <mxPoint x="280" y="580" as="targetPoint" />
          </mxGeometry>
        </mxCell>
        <mxCell id="wm7YnSlOgA21VQ6OUT5E-70" value="" style="endArrow=none;dashed=1;html=1;strokeWidth=2;rounded=0;strokeColor=#CCCCCC;fillColor=#f5f5f5;entryX=0.5;entryY=1;entryDx=0;entryDy=0;" parent="1" target="wm7YnSlOgA21VQ6OUT5E-48" edge="1">
          <mxGeometry width="50" height="50" relative="1" as="geometry">
            <mxPoint x="320" y="340" as="sourcePoint" />
            <mxPoint x="320" y="640" as="targetPoint" />
          </mxGeometry>
        </mxCell>
        <mxCell id="wm7YnSlOgA21VQ6OUT5E-74" value="" style="endArrow=none;dashed=1;html=1;strokeWidth=2;rounded=0;strokeColor=#CCCCCC;fillColor=#f5f5f5;entryX=0.5;entryY=1;entryDx=0;entryDy=0;" parent="1" edge="1">
          <mxGeometry width="50" height="50" relative="1" as="geometry">
            <mxPoint x="399.44" y="340" as="sourcePoint" />
            <mxPoint x="399.44" y="520" as="targetPoint" />
          </mxGeometry>
        </mxCell>
        <mxCell id="wm7YnSlOgA21VQ6OUT5E-75" value="" style="endArrow=none;dashed=1;html=1;strokeWidth=2;rounded=0;strokeColor=#CCCCCC;fillColor=#f5f5f5;entryX=0.5;entryY=1;entryDx=0;entryDy=0;" parent="1" edge="1">
          <mxGeometry width="50" height="50" relative="1" as="geometry">
            <mxPoint x="479.44" y="340" as="sourcePoint" />
            <mxPoint x="479.44" y="520" as="targetPoint" />
          </mxGeometry>
        </mxCell>
        <mxCell id="wm7YnSlOgA21VQ6OUT5E-76" value="" style="endArrow=none;dashed=1;html=1;strokeWidth=2;rounded=0;strokeColor=#b85450;fillColor=#f8cecc;entryX=0.5;entryY=1;entryDx=0;entryDy=0;exitX=0.5;exitY=1.002;exitDx=0;exitDy=0;exitPerimeter=0;" parent="1" edge="1" source="wm7YnSlOgA21VQ6OUT5E-81">
          <mxGeometry width="50" height="50" relative="1" as="geometry">
            <mxPoint x="560" y="300" as="sourcePoint" />
            <mxPoint x="559.44" y="520" as="targetPoint" />
          </mxGeometry>
        </mxCell>
        <mxCell id="wm7YnSlOgA21VQ6OUT5E-77" value="" style="endArrow=none;dashed=1;html=1;strokeWidth=2;rounded=0;strokeColor=#CCCCCC;fillColor=#f5f5f5;entryX=0.5;entryY=1;entryDx=0;entryDy=0;" parent="1" edge="1">
          <mxGeometry width="50" height="50" relative="1" as="geometry">
            <mxPoint x="639.44" y="340" as="sourcePoint" />
            <mxPoint x="639.44" y="520" as="targetPoint" />
          </mxGeometry>
        </mxCell>
        <mxCell id="wm7YnSlOgA21VQ6OUT5E-78" value="" style="endArrow=none;dashed=1;html=1;strokeWidth=2;rounded=0;strokeColor=#CCCCCC;fillColor=#f5f5f5;entryX=0.5;entryY=1;entryDx=0;entryDy=0;" parent="1" edge="1">
          <mxGeometry width="50" height="50" relative="1" as="geometry">
            <mxPoint x="719.44" y="340" as="sourcePoint" />
            <mxPoint x="719.44" y="520" as="targetPoint" />
          </mxGeometry>
        </mxCell>
        <mxCell id="wm7YnSlOgA21VQ6OUT5E-79" value="" style="endArrow=none;dashed=1;html=1;strokeWidth=2;rounded=0;strokeColor=#CCCCCC;fillColor=#f5f5f5;entryX=0.5;entryY=1;entryDx=0;entryDy=0;" parent="1" edge="1">
          <mxGeometry width="50" height="50" relative="1" as="geometry">
            <mxPoint x="799.44" y="341.15" as="sourcePoint" />
            <mxPoint x="799.44" y="521.15" as="targetPoint" />
          </mxGeometry>
        </mxCell>
        <mxCell id="wm7YnSlOgA21VQ6OUT5E-80" value="" style="endArrow=none;dashed=1;html=1;strokeWidth=2;rounded=0;strokeColor=#CCCCCC;fillColor=#f5f5f5;entryX=0.5;entryY=1;entryDx=0;entryDy=0;" parent="1" edge="1">
          <mxGeometry width="50" height="50" relative="1" as="geometry">
            <mxPoint x="878.8900000000001" y="340" as="sourcePoint" />
            <mxPoint x="878.8900000000001" y="520" as="targetPoint" />
          </mxGeometry>
        </mxCell>
        <mxCell id="wm7YnSlOgA21VQ6OUT5E-81" value="&lt;font style=&quot;font-size: 15px;&quot;&gt;数据采样&lt;/font&gt;" style="text;html=1;align=center;verticalAlign=middle;resizable=0;points=[];autosize=1;" parent="1" vertex="1">
          <mxGeometry x="520" y="230" width="80" height="30" as="geometry" />
        </mxCell>
        <mxCell id="wm7YnSlOgA21VQ6OUT5E-82" value="&lt;font style=&quot;font-size: 19px;&quot;&gt;SCK&lt;/font&gt;" style="text;html=1;align=center;verticalAlign=middle;resizable=0;points=[];autosize=1;" parent="1" vertex="1">
          <mxGeometry x="140" y="320" width="60" height="40" as="geometry" />
        </mxCell>
        <mxCell id="wm7YnSlOgA21VQ6OUT5E-83" value="&lt;font style=&quot;font-size: 19px;&quot;&gt;MISO&lt;/font&gt;" style="text;html=1;align=center;verticalAlign=middle;resizable=0;points=[];autosize=1;" parent="1" vertex="1">
          <mxGeometry x="130" y="480" width="70" height="40" as="geometry" />
        </mxCell>
        <mxCell id="wm7YnSlOgA21VQ6OUT5E-84" value="&lt;font style=&quot;font-size: 19px;&quot;&gt;MOSI&lt;/font&gt;" style="text;html=1;align=center;verticalAlign=middle;resizable=0;points=[];autosize=1;" parent="1" vertex="1">
          <mxGeometry x="130" y="400" width="70" height="40" as="geometry" />
        </mxCell>
        <mxCell id="wm7YnSlOgA21VQ6OUT5E-93" value="" style="endArrow=none;html=1;rounded=0;strokeWidth=2;exitX=0;exitY=0;exitDx=0;exitDy=0;entryX=1;entryY=0;entryDx=0;entryDy=0;" parent="1" edge="1">
          <mxGeometry width="50" height="50" relative="1" as="geometry">
            <mxPoint x="920" y="499.55" as="sourcePoint" />
            <mxPoint x="1000" y="499.55" as="targetPoint" />
          </mxGeometry>
        </mxCell>
        <mxCell id="wm7YnSlOgA21VQ6OUT5E-95" value="" style="endArrow=none;html=1;rounded=0;strokeWidth=2;entryX=1;entryY=0;entryDx=0;entryDy=0;" parent="1" edge="1">
          <mxGeometry width="50" height="50" relative="1" as="geometry">
            <mxPoint x="200" y="400" as="sourcePoint" />
            <mxPoint x="260" y="400" as="targetPoint" />
          </mxGeometry>
        </mxCell>
        <mxCell id="wm7YnSlOgA21VQ6OUT5E-99" value="" style="endArrow=none;html=1;rounded=0;strokeWidth=2;" parent="1" edge="1">
          <mxGeometry width="50" height="50" relative="1" as="geometry">
            <mxPoint x="200" y="499.44" as="sourcePoint" />
            <mxPoint x="280" y="499" as="targetPoint" />
          </mxGeometry>
        </mxCell>
        <mxCell id="wm7YnSlOgA21VQ6OUT5E-100" value="" style="endArrow=none;html=1;rounded=0;strokeWidth=2;exitX=0;exitY=0;exitDx=0;exitDy=0;" parent="1" edge="1">
          <mxGeometry width="50" height="50" relative="1" as="geometry">
            <mxPoint x="940" y="399.68" as="sourcePoint" />
            <mxPoint x="1000" y="400" as="targetPoint" />
          </mxGeometry>
        </mxCell>
        <mxCell id="wm7YnSlOgA21VQ6OUT5E-101" value="&lt;font style=&quot;font-size: 19px;&quot;&gt;CS&lt;/font&gt;" style="text;html=1;align=center;verticalAlign=middle;resizable=0;points=[];autosize=1;" parent="1" vertex="1">
          <mxGeometry x="140" y="560" width="50" height="40" as="geometry" />
        </mxCell>
        <mxCell id="wm7YnSlOgA21VQ6OUT5E-104" value="" style="endArrow=none;html=1;rounded=0;strokeWidth=2;exitX=0;exitY=0;exitDx=0;exitDy=0;" parent="1" edge="1">
          <mxGeometry width="50" height="50" relative="1" as="geometry">
            <mxPoint x="920" y="341.15" as="sourcePoint" />
            <mxPoint x="1000" y="341" as="targetPoint" />
          </mxGeometry>
        </mxCell>
        <mxCell id="wm7YnSlOgA21VQ6OUT5E-105" value="" style="endArrow=none;dashed=1;html=1;strokeWidth=2;rounded=0;strokeColor=#b85450;fillColor=#f8cecc;" parent="1" edge="1">
          <mxGeometry width="50" height="50" relative="1" as="geometry">
            <mxPoint x="960" y="260" as="sourcePoint" />
            <mxPoint x="960" y="580" as="targetPoint" />
          </mxGeometry>
        </mxCell>
        <mxCell id="wm7YnSlOgA21VQ6OUT5E-106" value="&lt;font style=&quot;font-size: 15px;&quot;&gt;通讯结束&lt;/font&gt;" style="text;html=1;align=center;verticalAlign=middle;resizable=0;points=[];autosize=1;" parent="1" vertex="1">
          <mxGeometry x="920" y="230" width="80" height="30" as="geometry" />
        </mxCell>
      </root>
    </mxGraphModel>
  </diagram>
</mxfile>
